<?xml version="1.0" encoding="UTF-8"?>
<svg xmlns="http://www.w3.org/2000/svg" xmlns:xlink="http://www.w3.org/1999/xlink" width="794px" height="1123px" viewBox="0 0 794 1122" version="1.1">
<g id="surface1">
<path style=" stroke:none;fill-rule:nonzero;fill:rgb(0%,0%,0%);fill-opacity:1;" d="M 17.476562 410.773438 C 17.011719 427.191406 16.660156 458.050781 16.660156 479.480469 L 16.660156 518.257812 L 47.308594 518.257812 C 64.085938 518.257812 83.78125 518.605469 91.003906 519.074219 L 104.054688 519.773438 L 104.054688 501.140625 L 91.585938 500.441406 C 84.828125 499.976562 70.144531 499.625 58.960938 499.625 L 38.800781 499.625 L 38.800781 380.84375 L 18.175781 380.84375 Z M 17.476562 410.773438 "/>
<path style=" stroke:none;fill-rule:nonzero;fill:rgb(0%,0%,0%);fill-opacity:1;" d="M 312.636719 420.085938 C 305.410156 422.765625 303.199219 432.082031 308.558594 437.324219 C 313.101562 441.980469 321.144531 441.632812 325.804688 436.625 C 330.8125 431.152344 329.765625 424.398438 323.125 421.019531 C 319.746094 419.273438 315.898438 418.921875 312.636719 420.085938 Z M 312.636719 420.085938 "/>
<path style=" stroke:none;fill-rule:nonzero;fill:rgb(0%,0%,0%);fill-opacity:1;" d="M 551.515625 471.09375 L 551.515625 517.09375 L 570.160156 517.09375 L 570.160156 513.367188 C 570.160156 509.988281 570.273438 509.875 572.257812 511.503906 C 577.148438 515.929688 582.394531 517.558594 591.132812 517.558594 C 605.582031 517.558594 615.253906 511.503906 621.195312 498.578125 C 623.527344 493.6875 623.992188 490.542969 623.992188 483.089844 C 623.992188 471.910156 620.382812 463.523438 613.15625 457.351562 C 602.667969 448.269531 585.191406 446.988281 574.585938 454.441406 L 571.324219 456.652344 L 571.324219 425.09375 L 551.515625 425.09375 Z M 595.328125 467.136719 C 607.445312 472.957031 608.378906 491.707031 597.074219 499.277344 C 589.269531 504.515625 577.265625 501.839844 573.070312 493.917969 C 570.859375 489.609375 570.742188 478.429688 572.957031 474.238281 C 577.5 465.503906 586.355469 462.710938 595.328125 467.136719 Z M 595.328125 467.136719 "/>
<path style=" stroke:none;fill-rule:nonzero;fill:rgb(0%,0%,0%);fill-opacity:1;" d="M 146.585938 451.179688 C 135.867188 454.558594 129.109375 460.496094 124.796875 470.277344 C 121.882812 476.917969 122.234375 492.054688 125.496094 498.695312 C 131.554688 511.039062 143.558594 517.558594 160.6875 517.558594 C 170.242188 517.558594 172.105469 517.210938 178.050781 514.183594 C 187.953125 509.058594 188.417969 507.777344 182.242188 501.488281 L 177.117188 496.25 L 173.96875 498.578125 C 166.394531 504.285156 152.761719 503.585938 146.355469 497.296875 C 144.371094 495.316406 142.507812 492.753906 142.160156 491.472656 C 141.578125 489.144531 142.160156 489.144531 167.210938 489.144531 L 192.964844 489.144531 L 192.265625 481.34375 C 191.332031 471.675781 187.019531 462.476562 181.195312 457.703125 C 172.222656 450.367188 157.773438 447.6875 146.585938 451.179688 Z M 163.832031 465.15625 C 168.027344 466.785156 173.96875 473.191406 173.96875 475.867188 C 173.96875 477.148438 170.941406 477.5 157.539062 477.5 L 141.226562 477.5 L 141.925781 474.820312 C 143.671875 469.230469 151.246094 463.640625 157.421875 463.523438 C 158.820312 463.523438 161.734375 464.222656 163.832031 465.15625 Z M 163.832031 465.15625 "/>
<path style=" stroke:none;fill-rule:nonzero;fill:rgb(0%,0%,0%);fill-opacity:1;" d="M 217.316406 451.179688 C 203.335938 455.722656 196.925781 468.53125 202.984375 479.828125 C 205.898438 485.300781 212.890625 488.679688 226.40625 490.890625 C 232.464844 491.941406 238.058594 493.335938 238.875 494.035156 C 241.207031 496.015625 240.625 500.558594 237.828125 502.070312 C 233.980469 504.167969 217.550781 502.886719 210.910156 499.859375 L 205.316406 497.414062 L 202.167969 503.816406 C 199.140625 510.105469 199.140625 510.339844 201.238281 511.96875 C 202.519531 512.785156 206.132812 514.296875 209.394531 515.230469 C 230.136719 521.167969 251.691406 516.628906 257.054688 505.097656 C 261.363281 496.015625 258.335938 485.417969 250.179688 481.574219 C 247.847656 480.527344 240.972656 478.546875 234.796875 477.265625 C 220.929688 474.472656 219.183594 473.539062 219.648438 469.582031 C 219.882812 467.136719 220.929688 466.085938 224.078125 465.039062 C 228.855469 463.292969 240.15625 464.105469 245.984375 466.550781 C 248.199219 467.484375 250.179688 468.183594 250.410156 468.183594 C 250.992188 468.183594 256.703125 456.769531 256.703125 455.488281 C 256.703125 451.296875 226.988281 448.035156 217.316406 451.179688 Z M 217.316406 451.179688 "/>
<path style=" stroke:none;fill-rule:nonzero;fill:rgb(0%,0%,0%);fill-opacity:1;" d="M 357.5 451.179688 C 352.722656 452.34375 344.914062 455.605469 343.167969 457.121094 C 342.816406 457.351562 348.292969 469.113281 349.226562 470.164062 C 349.34375 470.277344 351.671875 469.347656 354.234375 468.066406 C 360.410156 465.039062 370.433594 463.992188 376.027344 465.855469 C 380.335938 467.25 382.785156 469.929688 384.300781 474.820312 C 385 477.382812 384.765625 477.5 376.492188 477.5 C 365.421875 477.5 353.769531 479.480469 349.34375 482.039062 C 347.476562 483.089844 344.679688 485.882812 343.167969 488.097656 C 340.835938 491.355469 340.484375 493.21875 340.835938 498.808594 C 341.417969 506.730469 343.980469 510.6875 351.207031 514.765625 C 355.402344 517.09375 357.964844 517.558594 365.074219 517.558594 C 374.277344 517.558594 377.542969 516.511719 382.902344 511.503906 L 386.046875 508.476562 L 386.046875 517.09375 L 403.527344 517.09375 L 403.527344 494.617188 C 403.527344 468.414062 402.476562 463.640625 395.371094 457.238281 C 387.445312 450.132812 371.832031 447.6875 357.5 451.179688 Z M 384.882812 492.054688 C 384.882812 497.414062 381.734375 501.605469 376.144531 503.703125 C 367.519531 507.078125 359.246094 503.933594 359.246094 497.414062 C 359.246094 491.125 362.976562 489.261719 375.328125 489.144531 C 384.765625 489.144531 384.882812 489.144531 384.882812 492.054688 Z M 384.882812 492.054688 "/>
<path style=" stroke:none;fill-rule:nonzero;fill:rgb(0%,0%,0%);fill-opacity:1;" d="M 448.972656 451.996094 C 446.175781 453.277344 442.796875 455.140625 441.746094 456.1875 C 439.765625 457.933594 439.648438 457.820312 439.648438 454.441406 L 439.648438 450.714844 L 422.171875 450.714844 L 422.171875 517.09375 L 440.816406 517.09375 L 440.816406 497.878906 C 440.816406 476.101562 441.746094 472.027344 448.039062 468.183594 C 454.796875 464.105469 462.722656 465.738281 466.21875 472.140625 C 467.847656 475.054688 468.316406 479.828125 468.546875 496.363281 L 469.015625 517.09375 L 487.425781 517.09375 L 487.542969 498.113281 C 487.542969 486.699219 488.125 477.617188 488.941406 475.171875 C 490.921875 469.347656 497.097656 465.503906 503.503906 466.203125 C 513.761719 467.367188 515.390625 471.675781 515.390625 498.113281 L 515.390625 517.09375 L 534.035156 517.09375 L 534.035156 494.035156 C 534.035156 467.25 532.988281 462.59375 525.878906 456.070312 C 523.429688 453.859375 519.121094 451.414062 516.324219 450.597656 C 506.070312 447.921875 491.621094 451.179688 485.792969 457.585938 L 483.578125 459.914062 L 479.152344 456.070312 C 471.113281 449.316406 458.757812 447.570312 448.972656 451.996094 Z M 448.972656 451.996094 "/>
<path style=" stroke:none;fill-rule:nonzero;fill:rgb(0%,0%,0%);fill-opacity:1;" d="M 655.457031 451.761719 C 647.296875 454.558594 641.707031 459.332031 637.277344 467.019531 C 634.015625 472.839844 633.664062 474.355469 633.664062 483.902344 C 633.664062 496.363281 635.761719 501.371094 644.152344 508.707031 C 651.492188 515.113281 659.183594 517.558594 671.535156 517.558594 C 682.140625 517.558594 690.296875 514.878906 695.65625 509.875 L 698.21875 507.429688 L 693.328125 502.070312 L 688.550781 496.597656 L 683.304688 499.507812 C 673.050781 505.214844 660.347656 502.652344 654.289062 493.6875 L 651.609375 489.726562 L 677.480469 489.378906 L 703.347656 489.144531 L 702.648438 481.109375 C 700.667969 457.238281 678.761719 443.726562 655.457031 451.761719 Z M 675.847656 465.738281 C 680.277344 467.832031 684.355469 472.839844 684.355469 476.335938 C 684.355469 477.035156 678.644531 477.5 668.15625 477.5 L 651.84375 477.5 L 653.007812 474.121094 C 655.105469 468.183594 661.515625 463.875 668.621094 463.640625 C 669.90625 463.640625 673.167969 464.574219 675.847656 465.738281 Z M 675.847656 465.738281 "/>
<path style=" stroke:none;fill-rule:nonzero;fill:rgb(0%,0%,0%);fill-opacity:1;" d="M 730.265625 450.597656 C 718.03125 453.742188 710.457031 462.710938 711.503906 472.726562 C 712.554688 482.972656 718.144531 486.933594 736.90625 490.773438 C 752.054688 493.917969 754.503906 495.898438 749.492188 500.90625 C 747.277344 503.117188 745.996094 503.351562 736.90625 502.886719 C 730.265625 502.421875 725.019531 501.488281 721.410156 499.859375 L 715.933594 497.414062 L 713.019531 503.933594 C 711.386719 507.429688 710.339844 510.804688 710.6875 511.386719 C 711.039062 511.96875 715 513.601562 719.660156 514.996094 C 725.953125 516.976562 730.847656 517.675781 739.121094 517.675781 C 749.140625 517.675781 751.007812 517.328125 757.183594 514.183594 C 766.039062 509.757812 769.417969 504.980469 769.417969 497.0625 C 769.417969 485.417969 764.523438 481.226562 746.230469 477.5 C 732.363281 474.703125 729.800781 473.65625 729.800781 470.628906 C 729.800781 467.25 733.761719 464.6875 739.820312 463.992188 C 744.949219 463.410156 748.210938 463.992188 759.511719 467.484375 C 761.492188 468.066406 762.308594 467.25 764.523438 462.128906 C 765.921875 458.75 767.085938 455.605469 767.085938 455.140625 C 767.085938 451.878906 739.003906 448.269531 730.265625 450.597656 Z M 730.265625 450.597656 "/>
<path style=" stroke:none;fill-rule:nonzero;fill:rgb(0%,0%,0%);fill-opacity:1;" d="M 307.625 451.53125 C 307.277344 452.113281 306.925781 473.65625 306.808594 499.625 C 306.695312 525.59375 306.34375 559.949219 305.996094 576.019531 L 305.296875 605.363281 L 301.332031 602.570312 C 289.332031 594.417969 268.007812 599.191406 259.382812 611.886719 C 254.722656 618.757812 253.207031 623.882812 253.207031 633.199219 C 253.207031 643.328125 256.703125 651.945312 263.113281 657.886719 C 270.335938 664.523438 275.464844 666.503906 285.835938 666.621094 C 294.574219 666.621094 299.703125 664.988281 304.828125 660.5625 C 306.695312 658.933594 306.808594 659.167969 306.808594 664.757812 L 306.808594 670.8125 L 326.621094 670.8125 L 326.621094 450.714844 L 317.414062 450.714844 C 312.285156 450.714844 307.859375 451.0625 307.625 451.53125 Z M 298.535156 617.125 C 304.363281 621.203125 306.226562 625.046875 306.226562 632.847656 C 306.226562 644.261719 299.933594 651.015625 289.332031 651.015625 C 273.949219 651.015625 266.726562 632.148438 277.210938 619.6875 C 282.222656 613.632812 292.246094 612.46875 298.535156 617.125 Z M 298.535156 617.125 "/>
<path style=" stroke:none;fill-rule:nonzero;fill:rgb(0%,0%,0%);fill-opacity:1;" d="M 191.800781 570.546875 C 183.640625 575.667969 186.4375 588.128906 195.992188 589.527344 C 204.265625 590.691406 210.09375 586.265625 210.09375 578.8125 C 210.09375 570.429688 199.605469 565.65625 191.800781 570.546875 Z M 191.800781 570.546875 "/>
<path style=" stroke:none;fill-rule:nonzero;fill:rgb(0%,0%,0%);fill-opacity:1;" d="M 513.0625 592.789062 L 513.0625 600.941406 L 502.574219 600.941406 L 502.574219 616.078125 L 513.0625 616.078125 L 513.0625 633.3125 C 513.0625 649.152344 513.292969 651.132812 515.742188 655.789062 C 519.703125 663.242188 526.34375 666.621094 536.949219 666.734375 C 545.453125 666.734375 552.679688 664.640625 552.679688 662.078125 C 552.679688 661.144531 551.632812 658.117188 550.464844 655.324219 C 548.25 650.082031 548.136719 650.082031 544.289062 651.246094 C 539.277344 652.761719 534.386719 650.898438 532.871094 646.9375 C 532.171875 645.191406 531.703125 637.621094 531.703125 630.054688 L 531.703125 616.195312 L 540.210938 615.847656 L 548.601562 615.496094 L 548.949219 608.160156 L 549.300781 600.941406 L 531.703125 600.941406 L 531.703125 584.636719 L 513.0625 584.636719 Z M 513.0625 592.789062 "/>
<path style=" stroke:none;fill-rule:nonzero;fill:rgb(0%,0%,0%);fill-opacity:1;" d="M 728.632812 592.789062 L 728.632812 600.941406 L 718.03125 600.941406 L 718.378906 608.160156 L 718.730469 615.496094 L 723.738281 615.847656 L 728.632812 616.195312 L 728.632812 630.984375 C 728.75 651.597656 730.382812 657.1875 738.074219 662.894531 C 742.734375 666.386719 752.988281 668.015625 760.210938 666.386719 C 769.882812 664.175781 769.882812 664.058594 766.972656 656.371094 C 765.105469 651.132812 764.175781 649.851562 762.660156 650.433594 C 757.414062 652.414062 754.734375 652.296875 751.589844 649.851562 L 748.441406 647.40625 L 748.441406 616.078125 L 764.757812 616.078125 L 764.757812 600.941406 L 748.441406 600.941406 L 748.441406 584.636719 L 728.632812 584.636719 Z M 728.632812 592.789062 "/>
<path style=" stroke:none;fill-rule:nonzero;fill:rgb(0%,0%,0%);fill-opacity:1;" d="M 35.769531 599.890625 C 28.894531 601.871094 21.089844 608.160156 17.476562 614.796875 C 12.933594 622.832031 11.765625 635.875 14.796875 644.960938 C 17.359375 652.414062 24.351562 660.449219 31.460938 663.941406 C 41.832031 668.832031 56.976562 667.316406 64.785156 660.5625 C 66.648438 658.933594 66.765625 659.632812 66.765625 674.65625 L 66.765625 690.609375 L 85.410156 690.609375 L 85.410156 599.773438 L 66.765625 599.773438 L 66.765625 603.386719 C 66.765625 606.761719 66.648438 606.761719 64.785156 604.898438 C 59.191406 599.425781 45.558594 596.980469 35.769531 599.890625 Z M 58.960938 617.011719 C 65.835938 621.085938 68.746094 633.664062 64.667969 641.699219 C 60.359375 650.316406 48.589844 653.808594 40.316406 648.6875 C 31.226562 643.210938 29.59375 628.539062 37.167969 619.6875 C 42.179688 613.632812 51.386719 612.585938 58.960938 617.011719 Z M 58.960938 617.011719 "/>
<path style=" stroke:none;fill-rule:nonzero;fill:rgb(0%,0%,0%);fill-opacity:1;" d="M 363.324219 600.125 C 352.605469 603.734375 345.847656 609.441406 341.882812 618.40625 C 338.503906 625.976562 337.804688 632.148438 339.4375 639.71875 C 343.28125 658.234375 361.578125 669.765625 381.96875 666.269531 C 401.195312 663.007812 412.730469 648.917969 411.449219 630.167969 C 410.519531 617.476562 403.757812 607.578125 392.105469 601.988281 C 385.347656 598.84375 370.316406 597.796875 363.324219 600.125 Z M 384.648438 616.777344 C 389.425781 619.921875 391.875 625.394531 391.875 632.847656 C 391.875 645.191406 385.230469 651.714844 373.578125 650.78125 C 369.152344 650.433594 366.472656 649.5 364.375 647.40625 C 354.703125 638.554688 356.566406 621.203125 367.753906 615.960938 C 373.230469 613.398438 379.988281 613.75 384.648438 616.777344 Z M 384.648438 616.777344 "/>
<path style=" stroke:none;fill-rule:nonzero;fill:rgb(0%,0%,0%);fill-opacity:1;" d="M 581.226562 600.242188 C 565.613281 605.132812 555.941406 620.039062 557.691406 636.691406 C 558.972656 648.800781 565.847656 658.003906 577.617188 663.359375 C 590.898438 669.414062 611.058594 667.316406 619.914062 658.933594 L 622.480469 656.488281 L 617.816406 650.898438 L 613.039062 645.191406 L 609.894531 647.519531 C 600.6875 654.042969 585.890625 652.527344 579.597656 644.492188 C 574.703125 638.320312 574.9375 638.203125 602.203125 638.203125 L 627.257812 638.203125 L 627.257812 631.800781 C 627.257812 612.585938 612.339844 598.496094 592.414062 598.726562 C 588.800781 598.726562 583.792969 599.425781 581.226562 600.242188 Z M 598.242188 613.75 C 602.902344 615.03125 606.746094 618.640625 608.496094 623.300781 L 609.777344 626.558594 L 593.464844 626.558594 C 577.964844 626.558594 577.148438 626.441406 577.148438 624.230469 C 577.148438 621.320312 584.375 614.097656 587.871094 613.398438 C 592.53125 612.46875 593.929688 612.585938 598.242188 613.75 Z M 598.242188 613.75 "/>
<path style=" stroke:none;fill-rule:nonzero;fill:rgb(0%,0%,0%);fill-opacity:1;" d="M 670.019531 600.359375 C 667.574219 601.289062 664.078125 603.152344 662.214844 604.433594 L 658.71875 606.878906 L 658.71875 599.773438 L 641.238281 599.773438 L 641.238281 666.152344 L 659.882812 666.152344 L 659.882812 647.171875 C 659.882812 631.335938 660.234375 627.492188 662.097656 623.53125 C 666.058594 614.796875 678.644531 612.121094 685.285156 618.757812 C 689.132812 622.601562 690.0625 628.65625 690.179688 648.917969 L 690.179688 666.152344 L 708.941406 666.152344 L 708.589844 641.929688 C 708.242188 618.640625 708.125 617.59375 705.210938 612.003906 C 700.902344 603.617188 694.027344 599.542969 682.839844 599.078125 C 677.480469 598.726562 672.933594 599.191406 670.019531 600.359375 Z M 670.019531 600.359375 "/>
<path style=" stroke:none;fill-rule:nonzero;fill:rgb(0%,0%,0%);fill-opacity:1;" d="M 103.121094 622.714844 C 103.589844 644.609375 103.707031 646.125 106.617188 652.414062 C 110.464844 660.679688 116.058594 664.640625 126.429688 666.386719 C 134.933594 667.785156 140.992188 666.621094 147.636719 662.078125 C 149.964844 660.449219 152.179688 659.167969 152.414062 659.167969 C 152.761719 659.167969 152.996094 660.679688 152.996094 662.660156 L 152.996094 666.152344 L 170.476562 666.152344 L 170.476562 599.773438 L 151.832031 599.773438 L 151.832031 618.640625 C 151.832031 634.363281 151.480469 638.320312 149.734375 641.582031 C 146.820312 647.40625 142.625 650.082031 136.332031 650.082031 C 124.332031 650.082031 122.699219 646.355469 122.699219 619.574219 L 122.699219 599.773438 L 102.65625 599.773438 Z M 103.121094 622.714844 "/>
<path style=" stroke:none;fill-rule:nonzero;fill:rgb(0%,0%,0%);fill-opacity:1;" d="M 189.117188 632.964844 L 189.117188 666.152344 L 207.761719 666.152344 L 207.761719 599.773438 L 189.117188 599.773438 Z M 189.117188 632.964844 "/>
<path style=" stroke:none;fill-rule:nonzero;fill:rgb(0%,0%,0%);fill-opacity:1;" d="M 424.734375 623.300781 C 425.199219 649.734375 426.25 654.390625 433.707031 660.679688 C 438.949219 664.988281 448.972656 667.785156 456.3125 666.851562 C 462.140625 666.039062 470.296875 662.542969 471.695312 660.332031 C 473.09375 658.003906 474.605469 659.167969 474.605469 662.660156 L 474.605469 666.152344 L 492.085938 666.152344 L 492.085938 599.773438 L 473.675781 599.773438 L 473.207031 619.222656 C 472.859375 640.300781 472.042969 643.5625 466.332031 647.753906 C 462.953125 650.316406 454.214844 650.898438 450.253906 648.800781 C 445.125 646.007812 444.308594 641.929688 444.308594 620.15625 L 444.308594 599.773438 L 424.269531 599.773438 Z M 424.734375 623.300781 "/>
</g>
</svg>
