<?xml version="1.0" standalone="no"?>
<!DOCTYPE svg PUBLIC "-//W3C//DTD SVG 20010904//EN"
 "http://www.w3.org/TR/2001/REC-SVG-20010904/DTD/svg10.dtd">
<svg version="1.0" xmlns="http://www.w3.org/2000/svg"
 width="708.000000pt" height="333.000000pt" viewBox="0 0 708.000000 333.000000"
 preserveAspectRatio="xMidYMid meet">

<g transform="translate(0.000000,333.000000) scale(0.100000,-0.100000)"
fill="#000000" stroke="none">
<path d="M327 2603 c-4 -141 -7 -406 -7 -590 l0 -333 263 0 c144 0 313 -3 375
-7 l112 -6 0 80 0 80 -107 6 c-58 4 -184 7 -280 7 l-173 0 0 510 0 510 -88 0
-89 0 -6 -257z"/>
<path d="M2860 2523 c-62 -23 -81 -103 -35 -148 39 -40 108 -37 148 6 43 47
34 105 -23 134 -29 15 -62 18 -90 8z"/>
<path d="M4910 2085 l0 -395 80 0 80 0 0 32 c0 29 1 30 18 16 42 -38 87 -52
162 -52 124 0 207 52 258 163 20 42 24 69 24 133 0 96 -31 168 -93 221 -90 78
-240 89 -331 25 l-28 -19 0 135 0 136 -85 0 -85 0 0 -395z m376 34 c104 -50
112 -211 15 -276 -67 -45 -170 -22 -206 46 -19 37 -20 133 -1 169 39 75 115
99 192 61z"/>
<path d="M1435 2256 c-92 -29 -150 -80 -187 -164 -25 -57 -22 -187 6 -244 52
-106 155 -162 302 -162 82 0 98 3 149 29 85 44 89 55 36 109 l-44 45 -27 -20
c-65 -49 -182 -43 -237 11 -17 17 -33 39 -36 50 -5 20 0 20 215 20 l221 0 -6
67 c-8 83 -45 162 -95 203 -77 63 -201 86 -297 56z m148 -120 c36 -14 87 -69
87 -92 0 -11 -26 -14 -141 -14 l-140 0 6 23 c15 48 80 96 133 97 12 0 37 -6
55 -14z"/>
<path d="M2042 2256 c-120 -39 -175 -149 -123 -246 25 -47 85 -76 201 -95 52
-9 100 -21 107 -27 20 -17 15 -56 -9 -69 -33 -18 -174 -7 -231 19 l-48 21 -27
-55 c-26 -54 -26 -56 -8 -70 11 -7 42 -20 70 -28 178 -51 363 -12 409 87 37
78 11 169 -59 202 -20 9 -79 26 -132 37 -119 24 -134 32 -130 66 2 21 11 30
38 39 41 15 138 8 188 -13 19 -8 36 -14 38 -14 5 0 54 98 54 109 0 36 -255 64
-338 37z"/>
<path d="M3245 2256 c-41 -10 -108 -38 -123 -51 -3 -2 44 -103 52 -112 1 -1
21 7 43 18 53 26 139 35 187 19 37 -12 58 -35 71 -77 6 -22 4 -23 -67 -23 -95
0 -195 -17 -233 -39 -16 -9 -40 -33 -53 -52 -20 -28 -23 -44 -20 -92 5 -68 27
-102 89 -137 36 -20 58 -24 119 -24 79 0 107 9 153 52 l27 26 0 -37 0 -37 75
0 75 0 0 193 c0 225 -9 266 -70 321 -68 61 -202 82 -325 52z m235 -351 c0 -46
-27 -82 -75 -100 -74 -29 -145 -2 -145 54 0 54 32 70 138 71 81 0 82 0 82 -25z"/>
<path d="M4030 2249 c-24 -11 -53 -27 -62 -36 -17 -15 -18 -14 -18 15 l0 32
-75 0 -75 0 0 -285 0 -285 80 0 80 0 0 165 c0 187 8 222 62 255 58 35 126 21
156 -34 14 -25 18 -66 20 -208 l4 -178 79 0 79 0 1 163 c0 98 5 176 12 197 17
50 70 83 125 77 88 -10 102 -47 102 -274 l0 -163 80 0 80 0 0 198 c0 230 -9
270 -70 326 -21 19 -58 40 -82 47 -88 23 -212 -5 -262 -60 l-19 -20 -38 33
c-69 58 -175 73 -259 35z"/>
<path d="M5802 2251 c-70 -24 -118 -65 -156 -131 -28 -50 -31 -63 -31 -145 0
-107 18 -150 90 -213 63 -55 129 -76 235 -76 91 0 161 23 207 66 l22 21 -42
46 -41 47 -45 -25 c-88 -49 -197 -27 -249 50 l-23 34 222 3 222 2 -6 69 c-17
205 -205 321 -405 252z m175 -120 c38 -18 73 -61 73 -91 0 -6 -49 -10 -139
-10 l-140 0 10 29 c18 51 73 88 134 90 11 0 39 -8 62 -18z"/>
<path d="M6444 2261 c-105 -27 -170 -104 -161 -190 9 -88 57 -122 218 -155
130 -27 151 -44 108 -87 -19 -19 -30 -21 -108 -17 -57 4 -102 12 -133 26 l-47
21 -25 -56 c-14 -30 -23 -59 -20 -64 3 -5 37 -19 77 -31 54 -17 96 -23 167
-23 86 0 102 3 155 30 76 38 105 79 105 147 0 100 -42 136 -199 168 -119 24
-141 33 -141 59 0 29 34 51 86 57 44 5 72 0 169 -30 17 -5 24 2 43 46 12 29
22 56 22 60 0 28 -241 59 -316 39z"/>
<path d="M2817 2253 c-3 -5 -6 -190 -7 -413 -1 -223 -4 -518 -7 -656 l-6 -252
-34 24 c-103 70 -286 29 -360 -80 -40 -59 -53 -103 -53 -183 0 -87 30 -161 85
-212 62 -57 106 -74 195 -75 75 0 119 14 163 52 16 14 17 12 17 -36 l0 -52 85
0 85 0 0 945 0 945 -79 0 c-44 0 -82 -3 -84 -7z m-78 -1422 c50 -35 66 -68 66
-135 0 -98 -54 -156 -145 -156 -132 0 -194 162 -104 269 43 52 129 62 183 22z"/>
<path d="M1823 1231 c-70 -44 -46 -151 36 -163 71 -10 121 28 121 92 0 72 -90
113 -157 71z"/>
<path d="M4580 1040 l0 -70 -45 0 -45 0 0 -65 0 -65 45 0 45 0 0 -148 c0 -136
2 -153 23 -193 34 -64 91 -93 182 -94 73 0 135 18 135 40 0 8 -9 34 -19 58
-19 45 -20 45 -53 35 -43 -13 -85 3 -98 37 -6 15 -10 80 -10 145 l0 119 73 3
72 3 3 63 3 62 -76 0 -75 0 0 70 0 70 -80 0 -80 0 0 -70z"/>
<path d="M6430 1040 l0 -70 -45 0 -46 0 3 -62 3 -63 43 -3 42 -3 0 -127 c1
-177 15 -225 81 -274 40 -30 128 -44 190 -30 83 19 83 20 58 86 -16 45 -24 56
-37 51 -45 -17 -68 -16 -95 5 l-27 21 0 135 0 134 70 0 70 0 0 65 0 65 -70 0
-70 0 0 70 0 70 -85 0 -85 0 0 -70z"/>
<path d="M484 979 c-59 -17 -126 -71 -157 -128 -39 -69 -49 -181 -23 -259 22
-64 82 -133 143 -163 89 -42 219 -29 286 29 16 14 17 8 17 -121 l0 -137 80 0
80 0 0 390 0 390 -80 0 -80 0 0 -31 c0 -29 -1 -29 -17 -13 -48 47 -165 68
-249 43z m199 -147 c59 -35 84 -143 49 -212 -37 -74 -138 -104 -209 -60 -78
47 -92 173 -27 249 43 52 122 61 187 23z"/>
<path d="M3295 977 c-92 -31 -150 -80 -184 -157 -29 -65 -35 -118 -21 -183 33
-159 190 -258 365 -228 165 28 264 149 253 310 -8 109 -66 194 -166 242 -58
27 -187 36 -247 16z m183 -143 c41 -27 62 -74 62 -138 0 -106 -57 -162 -157
-154 -38 3 -61 11 -79 29 -83 76 -67 225 29 270 47 22 105 19 145 -7z"/>
<path d="M5165 976 c-134 -42 -217 -170 -202 -313 11 -104 70 -183 171 -229
114 -52 287 -34 363 38 l22 21 -40 48 -41 49 -27 -20 c-79 -56 -206 -43 -260
26 -42 53 -40 54 194 54 l215 0 0 55 c0 165 -128 286 -299 284 -31 0 -74 -6
-96 -13z m146 -116 c40 -11 73 -42 88 -82 l11 -28 -140 0 c-133 0 -140 1 -140
20 0 25 62 87 92 93 40 8 52 7 89 -3z"/>
<path d="M5927 975 c-21 -8 -51 -24 -67 -35 l-30 -21 0 30 0 31 -75 0 -75 0 0
-285 0 -285 80 0 80 0 0 163 c0 136 3 169 19 203 34 75 142 98 199 41 33 -33
41 -85 42 -259 l0 -148 81 0 80 0 -3 208 c-3 200 -4 209 -29 257 -37 72 -96
107 -192 111 -46 3 -85 -1 -110 -11z"/>
<path d="M1062 783 c4 -188 5 -201 30 -255 33 -71 81 -105 170 -120 73 -12
125 -2 182 37 20 14 39 25 41 25 3 0 5 -13 5 -30 l0 -30 75 0 75 0 0 285 0
285 -80 0 -80 0 0 -162 c0 -135 -3 -169 -18 -197 -25 -50 -61 -73 -115 -73
-103 0 -117 32 -117 262 l0 170 -86 0 -86 0 4 -197z"/>
<path d="M1800 695 l0 -285 80 0 80 0 0 285 0 285 -80 0 -80 0 0 -285z"/>
<path d="M3822 778 c4 -227 13 -267 77 -321 45 -37 131 -61 194 -53 50 7 120
37 132 56 12 20 25 10 25 -20 l0 -30 75 0 75 0 0 285 0 285 -79 0 -79 0 -4
-167 c-3 -181 -10 -209 -59 -245 -29 -22 -104 -27 -138 -9 -44 24 -51 59 -51
246 l0 175 -86 0 -86 0 4 -202z"/>
</g>
</svg>
